<?xml version="1.0" encoding="utf-8"?>
<!-- Generator: Adobe Illustrator 24.2.1, SVG Export Plug-In . SVG Version: 6.00 Build 0)  -->
<svg version="1.1" id="Layer_1" xmlns="http://www.w3.org/2000/svg" xmlns:xlink="http://www.w3.org/1999/xlink" x="0px" y="0px"
	 viewBox="0 0 149.9 150" style="enable-background:new 0 0 149.9 150;" xml:space="preserve">
<style type="text/css">
	.st0{fill:#66FCF1;}
	.st1{clip-path:url(#SVGID_2_);fill:url(#SVGID_3_);}
</style>
<g id="Layer_2_1_">
	<g id="Logo_3">
		<path class="st0" d="M135,0H90C73.5,0,60,13.3,60,29.9c0,0,0,0,0,0.1V60l-0.1,90h0.1c16.6,0,30-13.4,30-30l0,0V90h14.5
			c8.1,0.1,14.9-6.2,15.4-14.3c0.4-8.3-6-15.3-14.3-15.7c-0.2,0-0.5,0-0.7,0H90V30h44.6c8.1,0.1,14.9-6.2,15.4-14.3
			c0.4-8.3-6-15.3-14.3-15.7C135.5,0,135.2,0,135,0z"/>
		<circle class="st0" cx="60" cy="135" r="15"/>
		<g>
			<defs>
				<path id="SVGID_1_" d="M135,0H90C73.5,0,60,13.3,60,29.9c0,0,0,0,0,0.1V60l-0.1,90h0.1c16.6,0,30-13.4,30-30l0,0V90h14.5
					c8.1,0.1,14.9-6.2,15.4-14.3c0.4-8.3-6-15.3-14.3-15.7c-0.2,0-0.5,0-0.7,0H90V30h44.6c8.1,0.1,14.9-6.2,15.4-14.3
					c0.4-8.3-6-15.3-14.3-15.7C135.5,0,135.2,0,135,0z"/>
			</defs>
			<clipPath id="SVGID_2_">
				<use xlink:href="#SVGID_1_"  style="overflow:visible;"/>
			</clipPath>
			<radialGradient id="SVGID_3_" cx="62.9603" cy="135" r="27.3488" gradientUnits="userSpaceOnUse">
				<stop  offset="0" style="stop-color:#424242;stop-opacity:0.4"/>
				<stop  offset="0.1645" style="stop-color:#464646;stop-opacity:0.3342"/>
				<stop  offset="0.3112" style="stop-color:#515151;stop-opacity:0.2755"/>
				<stop  offset="0.4511" style="stop-color:#636363;stop-opacity:0.2196"/>
				<stop  offset="0.5868" style="stop-color:#7D7D7D;stop-opacity:0.1653"/>
				<stop  offset="0.7196" style="stop-color:#9E9E9E;stop-opacity:0.1122"/>
				<stop  offset="0.8501" style="stop-color:#C6C6C6;stop-opacity:5.996010e-02"/>
				<stop  offset="0.9765" style="stop-color:#F5F5F5;stop-opacity:9.415478e-03"/>
				<stop  offset="1" style="stop-color:#FFFFFF;stop-opacity:0"/>
			</radialGradient>
			<circle class="st1" cx="63" cy="135" r="27.3"/>
		</g>
		<path class="st0" d="M60.2,120H45.5c-8.3,0-15-6.7-15-15s6.7-15,15-15h15.4V60H40C17.9,60,0,77.9,0,100v10c0,22.1,17.9,40,40,40
			h20.1c9.8,0,18.7-9.4,15.1-19.7C72.9,124,66.9,119.9,60.2,120z"/>
		<rect x="51.3" y="61" class="st0" width="18.7" height="28"/>
	</g>
</g>
</svg>
