<?xml version="1.0" encoding="UTF-8"?>
<svg width="23px" height="19px" viewBox="0 0 23 19" version="1.1" xmlns="http://www.w3.org/2000/svg" xmlns:xlink="http://www.w3.org/1999/xlink">
    <!-- Generator: Sketch 52.5 (67469) - http://www.bohemiancoding.com/sketch -->
    <title>Fill 1</title>
    <desc>Created with Sketch.</desc>
    <g id="Desktop" stroke="none" stroke-width="1" fill="none" fill-rule="evenodd">
        <g id="Home_Atherton-Cox" transform="translate(-1001.000000, -338.000000)" fill="#1F2833">
            <g id="Pannel" transform="translate(332.000000, 251.000000)">
                <g id="CaseStudy_Details" transform="translate(654.000000, 0.000000)">
                    <path d="M26.8026316,98.5151515 C27.9728511,98.5151515 28.9210526,97.6131732 28.9210526,96.5 C28.9210526,95.3868268 27.9728511,94.4848485 26.8026316,94.4848485 C25.6324121,94.4848485 24.6842105,95.3868268 24.6842105,96.5 C24.6842105,97.6131732 25.6324121,98.5151515 26.8026316,98.5151515 M33.5063796,98.9845334 C33.3779904,99.0213416 33.2496013,99.0581498 33.1166268,99.0909091 C32.7956539,98.1992917 32.4013158,97.3281642 31.9473684,96.4815754 C32.3875598,95.6472561 32.7589713,94.788398 33.0707735,93.9090909 C33.3092105,93.9704379 33.5384769,94.0358747 33.7585726,94.1013115 C35.8953349,94.7556796 37.3947368,95.7290521 37.3947368,96.4733958 C37.3947368,97.2749968 35.7944577,98.3097163 33.5063796,98.9845334 M32.4639241,103.447514 C32.4222044,103.94563 32.1440732,104.411123 31.6990633,104.725467 C30.9620156,105.101095 29.3905744,104.611145 27.6939742,103.32915 C27.4992823,103.182124 27.3045905,103.022931 27.1052632,102.859615 C27.8144977,102.169561 28.468106,101.438719 29.0614525,100.67113 C30.1229866,100.593596 31.1798851,100.450694 32.222877,100.242424 C32.2692322,100.409865 32.3109519,100.577223 32.3480361,100.74054 C32.5751765,101.62245 32.6122607,102.541106 32.4639241,103.447514 M26.8203146,101.969697 C26.304982,101.621702 25.7896494,101.235744 25.2894737,100.821314 C25.7744926,100.834 26.2746683,100.840295 26.7798963,100.840295 C27.3002812,100.840295 27.8105615,100.834 28.3157895,100.818182 C27.8509797,101.219926 27.350804,101.602721 26.8203146,101.969697 M25.4547693,103.214048 C24.6985751,103.836399 23.8232231,104.330983 22.8699601,104.668989 C22.3612476,104.887389 21.7746243,104.907997 21.2521628,104.722528 C20.5234666,104.343347 20.2209889,102.888447 20.6334585,100.93072 C20.6838714,100.699914 20.7388674,100.469108 20.8030293,100.242424 C21.8296202,100.440258 22.8653771,100.576268 23.914883,100.646334 C24.5198383,101.41706 25.1843726,102.154856 25.8947368,102.847232 C25.748081,102.974999 25.6014252,103.098645 25.4547693,103.214048 M20.5226448,99.0909091 C20.3303848,99.0424079 20.1427023,98.9897807 19.9550199,98.9331488 C18.9799867,98.6621248 17.8722026,98.2333809 17.071119,97.6710666 C16.6087793,97.3879072 16.2975011,96.9510326 16.2105263,96.4615712 C16.2105263,95.7213115 17.6570544,94.7747498 19.7444494,94.1315733 C20.0053737,94.0506706 20.2708757,93.9778582 20.5363777,93.9090909 C20.8476559,94.7868852 21.2230208,95.648499 21.6578947,96.4817969 C21.2184432,97.3272301 20.8385007,98.2009793 20.5226448,99.0909091 M21.2332783,88.2764615 C22.0086496,87.875412 23.7301586,88.4483398 25.5439736,89.8724748 C25.6593563,89.9625063 25.7747389,90.0607225 25.8947368,90.1589387 C25.1793645,90.8423598 24.5193758,91.5707966 23.9147708,92.3319722 C22.8717117,92.413819 21.8378833,92.557051 20.8132855,92.7575758 C20.7532865,92.5488663 20.7025181,92.3360646 20.6517498,92.1232628 C20.2179111,90.1425693 20.50406,88.6488646 21.2332783,88.2764615 M26.8102609,91.030303 C27.3443167,91.3969866 27.8478549,91.7829694 28.3157895,92.1818182 C27.308713,92.1528695 26.2965502,92.1528695 25.2894737,92.1818182 C25.7879257,91.7668867 26.3016364,91.380904 26.8102609,91.030303 M31.0981539,95.6363636 C30.8502465,95.2420705 30.5970646,94.8477774 30.3333333,94.4624455 C30.0748767,94.0815942 29.8058709,93.7052234 29.5263158,93.3333333 C30.3755303,93.4229454 31.1878225,93.5439217 31.9473684,93.6917816 C31.7047357,94.354911 31.419906,95.0001179 31.0981539,95.6363636 M30.324748,98.5393483 C30.587458,98.1518477 30.8347144,97.7599438 31.0768197,97.3636364 C31.406495,98.0021316 31.6949608,98.6494337 31.9473684,99.3143934 C31.1489362,99.468513 30.3402016,99.5873612 29.5263158,99.6666667 C29.8044793,99.2967357 30.0671892,98.918086 30.324748,98.5393483 M22.2631579,96.7921384 C22.5677675,96.2043119 22.9000688,95.6292643 23.2508313,95.0627359 C23.6015939,94.4962075 23.9800482,93.9467175 24.3769637,93.4057467 C25.0692581,93.358891 25.7753985,93.3333333 26.4953847,93.3333333 C27.2153709,93.3333333 27.9261266,93.358891 28.6138058,93.4057467 C29.006106,93.9424579 29.379945,94.4919478 29.7353228,95.0542166 C30.0907006,95.6164854 30.4230019,96.1915331 30.7368421,96.7751 C30.4276172,97.3629264 30.0953159,97.9422337 29.7399381,98.5130217 C29.3891756,99.0795501 29.0153365,99.6290401 28.6230363,100.17427 C27.9353572,100.221126 27.2199862,100.242424 26.4953847,100.242424 C25.7707832,100.242424 25.0692581,100.221126 24.3908095,100.18279 C23.9892788,99.6418189 23.6108244,99.0880693 23.2554466,98.5215409 C22.9000688,97.9550551 22.5723828,97.3800075 22.2631579,96.7921384 M21.0526316,93.6828204 C21.8171745,93.5394411 22.6295014,93.4229454 23.4736842,93.3333333 C23.1922899,93.7052234 22.916205,94.0860748 22.656048,94.4714067 C22.395891,94.852258 22.1410434,95.2420705 21.9021237,95.6363636 C21.5676362,94.9687537 21.2862419,94.3145855 21.0526316,93.6828204 M22.649274,98.5195361 C22.9153811,98.9048508 23.186706,99.2902098 23.4736842,99.6666667 C22.6597096,99.591331 21.8509528,99.4806084 21.0526316,99.3344988 C21.2822142,98.6966923 21.5691924,98.0367855 21.9031307,97.3636364 C22.1431488,97.7533357 22.3883848,98.1386946 22.649274,98.5195361 M27.6483832,89.7320978 C29.3752262,88.414551 30.986018,87.8981052 31.7194621,88.2681569 C32.5039688,88.6626076 32.8057021,90.2566767 32.3136447,92.3509255 C32.2811503,92.4891866 32.248656,92.6233812 32.2068775,92.7575758 C31.1763421,92.5542506 30.1318806,92.4078565 29.082777,92.3265265 C28.4793103,91.570157 27.8201391,90.8463195 27.1052632,90.1672136 C27.2863032,90.016753 27.4627011,89.8744254 27.6483832,89.7320978 M33.7863281,93.1571745 C33.54375,93.0808393 33.3011719,93.008745 33.0585938,92.9408915 C33.0990234,92.7839803 33.1349609,92.6270691 33.1708984,92.4701579 C33.7234375,89.9426151 33.3595703,87.911251 32.1332031,87.2411978 C30.9517578,86.6008304 29.0246094,87.2666428 27.075,88.8696817 C26.8818359,89.0265929 26.6931641,89.1919858 26.5134766,89.3573787 C26.3921875,89.2471168 26.2664063,89.1368548 26.140625,89.0308337 C24.0966797,87.3175329 22.0482422,86.5965895 20.821875,87.2708837 C19.6449219,87.9154919 19.2945313,89.8281123 19.7886719,92.2199481 C19.8380859,92.4574353 19.8919922,92.6906817 19.9548828,92.928169 C19.6673828,93.0045042 19.384375,93.089321 19.1193359,93.1783787 C16.7205078,93.9629348 15,95.2012611 15,96.4819959 C15,97.8051391 16.8328125,99.1325231 19.3259766,99.9382834 C19.528125,100.001896 19.7302734,100.065509 19.9369141,100.120682 C19.8695313,100.375133 19.8111328,100.6253 19.7572266,100.884034 C19.2855469,103.237702 19.6539063,105.103673 20.8308594,105.743998 C22.04375,106.40557 24.0832031,105.727035 26.06875,104.085871 C26.2259766,103.954362 26.3832031,103.818655 26.5404297,103.674467 C26.7380859,103.856823 26.9447266,104.030697 27.1513672,104.200331 C29.0740234,105.761004 30.9742188,106.392847 32.1466797,105.75248 C33.3595703,105.090908 33.7548828,103.084989 33.2427734,100.642263 C33.2023438,100.455666 33.1574219,100.264828 33.1080078,100.06975 C33.2517578,100.031582 33.3910156,99.9891735 33.5302734,99.9467651 C36.1222656,99.1367639 38,97.8263433 38,96.4819959 C38,95.1970203 36.2300781,93.9502123 33.7863281,93.1571745" id="Fill-1"></path>
                </g>
            </g>
        </g>
    </g>
</svg>